
        <svg xmlns="http://www.w3.org/2000/svg" xmlns:xlink="http://www.w3.org/1999/xlink" version="1.1" width="3182.470883351631" 
        height="1195.1511413610378" viewBox="0 0 3182.470883351631 1195.1511413610378">
			
			<g transform="scale(9.12354416758156) translate(10, 10)">
				<defs id="SvgjsDefs3403"><linearGradient id="SvgjsLinearGradient3410"><stop id="SvgjsStop3411" stop-color="#006838" offset="0"></stop><stop id="SvgjsStop3412" stop-color="#96cf24" offset="1"></stop></linearGradient></defs><g id="SvgjsG3404" featureKey="5TMTKC-0" transform="matrix(1.1562121576701059,0,0,1.1562121576701059,0.00008227657931466825,0)" fill="url(#SvgjsLinearGradient3410)"><g xmlns="http://www.w3.org/2000/svg" data-name="Layer 2"><g data-name="Layer 1"><path d="M66.69,48.39a5.62,5.62,0,1,0,0-2H39.21v-5.6h16a1,1,0,0,0,.8-.41l6.6-8.91h4a5.62,5.62,0,1,0,0-2H62.14a1,1,0,0,0-.81.41l-6.6,8.91H39.21V33.7H47.8a1,1,0,0,0,.79-.39l6.92-9.06a5.56,5.56,0,0,0,2.16.44,5.48,5.48,0,1,0-3.82-1.56L47.3,31.7H39.21V1a1,1,0,0,0-2,0V18.07a9.87,9.87,0,0,0-18.58,2.17,13.67,13.67,0,0,0,2.75,8.39l0,0a11.91,11.91,0,0,0,6.36,4,1,1,0,0,1-.26,2l-.26,0a13.9,13.9,0,0,1-6.82-4c-1.85.89-5.11,3-5.24,5.46a1,1,0,0,1-1,.95h0a1,1,0,0,1-1-1c.17-3.54,4-6,6-7a16.44,16.44,0,0,1-2.51-7.9c-5,0-9.12,4.44-9.12,9.88A10.54,10.54,0,0,0,8,34a1,1,0,0,1-.44,1.14C2.89,38,0,43.63,0,49.81a18.77,18.77,0,0,0,2.08,8.64,1,1,0,0,1,.11.51l0,.32c0,.2,0,.4,0,.6,0,7.94,4.65,14.52,11,16.14a16.39,16.39,0,0,1,2.08-9.27,13.1,13.1,0,0,1-6.58-6,1,1,0,1,1,1.8-.87,11.09,11.09,0,0,0,6,5.17l.12-.16a15.15,15.15,0,0,1,9.15-4.69,8.75,8.75,0,0,1,5.76-7.59,1,1,0,1,1,.66,1.89c-.2.07-4.69,1.74-4.42,6.55a1,1,0,0,1-.26.73,1,1,0,0,1-.7.33A13.51,13.51,0,0,0,18,66.23c-2.16,2.46-3.12,5.87-2.88,10.13l.53,0a1,1,0,0,1,.87.58,11.33,11.33,0,0,0,20.67-.2V95a1,1,0,0,0,2,0V64.3H47.3l6.55,8.57a5.47,5.47,0,1,0,3.82-1.56,5.56,5.56,0,0,0-2.16.44l-6.92-9.06a1,1,0,0,0-.79-.39H39.21V56.41H54.73l6.6,8.91a1,1,0,0,0,.81.41h4.55a5.62,5.62,0,1,0,0-2h-4L56,54.82a1,1,0,0,0-.8-.41h-16v-6ZM28.38,22.27a1,1,0,0,1,1.82-.83,8.25,8.25,0,0,0,7,4.55v2C31,27.84,28.41,22.33,28.38,22.27Zm.32,20.59c-.74,1-5,6.44-9.92,7.21a7.52,7.52,0,0,1-1.15.09A6.51,6.51,0,0,1,15,49.6c-.4,2-2.11,3.67-5.13,4.88a1,1,0,0,1-.37.07,1,1,0,0,1-.38-1.92c2.45-1,3.79-2.2,4-3.59.3-2.34-2.63-5.06-3.78-5.91a1,1,0,0,1-.21-1.4,1,1,0,0,1,1.39-.21c.18.13,3.54,2.64,4.41,5.75a4.7,4.7,0,0,0,3.56.82c4.43-.69,8.68-6.49,8.72-6.55a.88.88,0,0,1,.24-.23,7.5,7.5,0,0,1,6-1.39,9,9,0,0,1,3.76,1.94v2.8A8.21,8.21,0,0,0,33,41.88,5.5,5.5,0,0,0,28.7,42.86Zm.64,28.42a1,1,0,0,1-.85.46,1,1,0,0,1-.53-.15,1,1,0,0,1-.31-1.38c0-.06,3.64-5.67,9.56-5.36v2C32.42,66.53,29.48,71.06,29.34,71.28Z"></path></g></g></g><g id="SvgjsG3405" featureKey="nameLeftFeature-0" transform="matrix(2.5280897589648563,0,0,2.5280897589648563,107.62359548191458,24.09550873666756)" fill="#111111"><path d="M0.94 19.5 l4.66 -14 l1.04 0 l-3.04 9.26 l3.44 0 l0.36 1 l-4.14 0 l-1.26 3.74 l-1.06 0 z M10.76 19.5 l-3.6 -10.8 l-1.86 5.56 l-1.06 0 l2.96 -8.76 l4.6 14 l-1.04 0 z M9.14 19.5 l-0.74 -2.24 l-3.76 0 l-0.7 -1 l4.16 0 l-1.46 -4.46 l0.52 -1.54 l3.08 9.24 l-1.1 0 z M3.56 19.5 l-1.06 0 l1.06 -3 l0.64 1 z M16 14.76 c0 2.4 1.38 4 3.48 4 c0.9 0 1.7 -0.3 2.26 -0.86 l0.74 0.76 c-0.74 0.7 -1.8 1.08 -3 1.08 c-2.7 0 -4.5 -1.98 -4.5 -4.98 l0 -9.26 l1.02 0 l0 9.26 z M17.5 14.76 c0 1.5 0.78 2.5 1.98 2.5 s2 -1 2 -2.5 l0 -9.26 l1 0 l0 9.26 c0 2.1 -1.2 3.48 -3 3.48 s-3 -1.38 -3 -3.48 l0 -9.26 l1.02 0 l0 9.26 z M23.98 14.76 c0 1.44 -0.4 2.64 -1.14 3.48 l-0.76 -0.68 c0.6 -0.7 0.9 -1.66 0.9 -2.8 l0 -9.26 l1 0 l0 9.26 z M37.24 6.5 l-5 0 l0 13 l-1 0 l0 -13 l-3.5 0 l0 -1 l9.5 0 l0 1 z M30.740000000000002 8 l-3 0 l0 -1 l3 0 l0 1 z M37.24 8 l-3.16 0 l-0.98 -1 l4.14 0 l0 1 z M33.74 19.5 l-1 0 l0 -12.14 l1 1.04 l0 11.1 z"></path></g><g id="SvgjsG3406" featureKey="nameRightFeature-0" transform="matrix(2.319587560449554,0,0,2.319587560449554,210.52061865932566,27.005155494380574)" fill="#111111"><path d="M6.5 4.74 c3 0 5 2.22 5 5.52 l0 4.5 c0 3.3 -2 5.5 -5 5.5 s-5 -2.2 -5 -5.5 l0 -4.5 c0 -3.3 2 -5.52 5 -5.52 z M11 10.26 c0 -3 -1.8 -5 -4.5 -5 s-4.5 2 -4.5 5 l0 4.5 c0 3 1.8 4.98 4.5 4.98 c1.2 0 2.24 -0.38 3 -1.14 l-0.7 -0.7 c-0.6 0.56 -1.4 0.86 -2.3 0.86 c-2.1 0 -3.5 -1.6 -3.5 -4 l0 -4.5 c0 -2.4 1.4 -4.02 3.5 -4.02 s3.5 1.62 3.5 4.02 l0 4.5 c0 1.14 -0.3 2.1 -0.86 2.8 l0.76 0.68 c0.7 -0.9 1.1 -2.1 1.1 -3.48 l0 -4.5 z M4.1 7.960000000000001 c-0.4 0.6 -0.6 1.4 -0.6 2.3 l0 4.5 c0 2.1 1.2 3.48 3 3.48 s3 -1.38 3 -3.48 l0 -4.5 c0 -2.1 -1.2 -3.5 -3 -3.5 c-0.84 0 -1.56 0.3 -2.04 0.84 l0.74 0.7 c0.3 -0.34 0.76 -0.56 1.3 -0.56 c1.2 0 2 1.02 2 2.52 l0 4.5 c0 1.5 -0.8 2.5 -2 2.5 s-2 -1 -2 -2.5 l0 -4.5 c0 -0.6 0.14 -1.16 0.34 -1.56 z M5 14.76 c0 1.2 0.6 1.98 1.5 1.98 s1.5 -0.78 1.5 -1.98 l0 -4.5 c0 -1.2 -0.6 -2 -1.5 -2 s-1.5 0.8 -1.5 2 l0 4.5 z M20 5 c3 0 5 2 5 5 s-2 5 -5 5 l-1.5 0 l0 5 l-3.5 0 l0 -15 l5 0 z M20 13 c1.8 0 3 -1.2 3 -3 s-1.2 -3 -3 -3 l-2.66 0 l1.06 1 l1.6 0 c1.2 0 2 0.8 2 2 s-0.8 2 -2 2 l-3.5 0 l0 -5.5 l3.5 0 c2.1 0 3.5 1.4 3.5 3.5 c0 0.96 -0.3 1.76 -0.8 2.36 l0.76 0.7 c0.64 -0.76 1.04 -1.8 1.04 -3.06 c0 -2.7 -1.8 -4.5 -4.5 -4.5 l-4.5 0 l0 14 l1 0 l0 -6.5 l3.5 0 z M17 11.5 l1 0 l0 -3.16 l-1 -0.98 l0 4.14 z M20 11.5 c0.9 0 1.5 -0.6 1.5 -1.5 s-0.6 -1.5 -1.5 -1.5 l-1.5 0 l0 3 l1.5 0 z M20 14.5 c1.24 0 2.3 -0.4 3.1 -1.06 l-0.76 -0.74 c-0.6 0.5 -1.4 0.8 -2.34 0.8 l-2.66 0 l1.06 1 l1.6 0 z M18 19.5 l0 -4.64 l-1 -1 l0 5.64 l1 0 z M31.5 20 l-3.5 0 l0 -15 l2.5 0 l3.5 6.2 l0 -6.2 l3.5 0 l0 15 l-2.5 0 l-3.5 -6.2 l0 6.2 z M29.5 9.24 l5.76 10.26 l1.14 0 l-7.9 -14 l0 14 l1 0 l0 -10.26 z M29.1 5.5 l7.9 14 l0 -14 l-1 0 l0 10.26 l-5.76 -10.26 l-1.14 0 z M34.5 12.059999999999999 l1 1.74 l0 -8.3 l-1 0 l0 6.56 z M31 12.9 l-1 -1.74 l0 8.34 l1 0 l0 -6.6 z M45 20 l-3.5 0 l0 -15 l2.5 0 l3.5 6.2 l0 -6.2 l3.5 0 l0 15 l-2.5 0 l-3.5 -6.2 l0 6.2 z M43 9.24 l5.76 10.26 l1.14 0 l-7.9 -14 l0 14 l1 0 l0 -10.26 z M42.6 5.5 l7.9 14 l0 -14 l-1 0 l0 10.26 l-5.76 -10.26 l-1.14 0 z M48 12.059999999999999 l1 1.74 l0 -8.3 l-1 0 l0 6.56 z M44.5 12.9 l-1 -1.74 l0 8.34 l1 0 l0 -6.6 z"></path></g>
			</g>
		</svg>
	