<?xml version="1.0" encoding="UTF-8" standalone="no"?>
<svg
   version="1.1"
   width="3182.470883351631"
   height="1195.1511413610378"
   viewBox="0 0 3182.470883351631 1195.1511413610378"
   id="svg3"
   sodipodi:docname="Color logo - no background(1).svg"
   inkscape:version="1.3 (0e150ed6c4, 2023-07-21)"
   xmlns:inkscape="http://www.inkscape.org/namespaces/inkscape"
   xmlns:sodipodi="http://sodipodi.sourceforge.net/DTD/sodipodi-0.dtd"
   xmlns:xlink="http://www.w3.org/1999/xlink"
   xmlns="http://www.w3.org/2000/svg"
   xmlns:svg="http://www.w3.org/2000/svg">
  <defs
     id="defs3">
    <linearGradient
       inkscape:collect="always"
       xlink:href="#SvgjsLinearGradient3410"
       id="linearGradient3"
       gradientTransform="scale(0.90046509,1.1105372)"
       x1="-7.9022088e-05"
       y1="0"
       x2="86.444569"
       y2="0"
       gradientUnits="userSpaceOnUse" />
    <linearGradient
       inkscape:collect="always"
       xlink:href="#SvgjsLinearGradient3410"
       id="linearGradient4"
       gradientTransform="scale(0.90046509,1.1105372)"
       x1="-7.9022088e-05"
       y1="0"
       x2="86.444569"
       y2="0"
       gradientUnits="userSpaceOnUse" />
    <linearGradient
       inkscape:collect="always"
       xlink:href="#SvgjsLinearGradient3410"
       id="linearGradient5"
       gradientTransform="scale(0.90046509,1.1105372)"
       x1="-7.9022088e-05"
       y1="0"
       x2="86.444569"
       y2="0"
       gradientUnits="userSpaceOnUse" />
    <linearGradient
       inkscape:collect="always"
       xlink:href="#SvgjsLinearGradient3410"
       id="linearGradient6"
       gradientTransform="scale(0.90046509,1.1105372)"
       x1="-7.9022088e-05"
       y1="0"
       x2="86.444569"
       y2="0"
       gradientUnits="userSpaceOnUse" />
    <defs
       id="SvgjsDefs3403">
      <linearGradient
         id="SvgjsLinearGradient3410">
        <stop
           id="SvgjsStop3411"
           stop-color="#006838"
           offset="0" />
        <stop
           id="SvgjsStop3412"
           stop-color="#96cf24"
           offset="1" />
      </linearGradient>
    </defs>
  </defs>
  <sodipodi:namedview
     id="namedview3"
     pagecolor="#505050"
     bordercolor="#eeeeee"
     borderopacity="1"
     inkscape:showpageshadow="0"
     inkscape:pageopacity="0"
     inkscape:pagecheckerboard="0"
     inkscape:deskcolor="#d1d1d1"
     inkscape:zoom="0.37926505"
     inkscape:cx="1591.2355"
     inkscape:cy="597.20768"
     inkscape:window-width="1920"
     inkscape:window-height="1017"
     inkscape:window-x="-8"
     inkscape:window-y="-8"
     inkscape:window-maximized="1"
     inkscape:current-layer="svg3" />
  <g
     id="g7">
    <g
       id="g8"
       transform="translate(-3.3066e-4,-1.3e-4)">
      <path
         d="m 2669.1512,760.87537 h -74.07 v -317.4429 h 52.9071 l 74.07,131.20973 V 443.43247 h 74.0701 v 317.4429 h -52.9072 l -74.07,-131.20973 z m -42.3257,-227.71237 121.898,217.13094 h 24.1257 L 2605.6626,454.0139 v 296.28004 h 21.1629 z m -8.4652,-79.1491 167.1866,296.28004 V 454.0139 h -21.1628 V 671.14484 L 2642.486,454.0139 Z m 114.2795,138.82836 21.1628,36.82338 V 454.0139 h -21.1628 z m -74.07,17.7768 -21.1629,-36.82337 v 176.49825 h 21.1629 z"
         id="path3-9"
         style="fill:#000000;stroke-width:21.1629"
         sodipodi:nodetypes="ccccccccccccccccccccccccccccccccccc" />
      <g
         id="SvgjsG3405-7"
         featureKey="nameLeftFeature-0"
         transform="matrix(23.065139,0,0,23.065139,1073.1441,311.07188)"
         fill="#000000">
        <path
           d="M 0.94,19.5 5.6,5.5 H 6.64 L 3.6,14.76 h 3.44 l 0.36,1 H 3.26 L 2,19.5 Z m 9.82,0 L 7.16,8.7 5.3,14.26 H 4.24 L 7.2,5.5 l 4.6,14 z M 9.14,19.5 8.4,17.26 H 4.64 l -0.7,-1 H 8.1 L 6.64,11.8 7.16,10.26 10.24,19.5 Z m -5.58,0 H 2.5 l 1.06,-3 0.64,1 z"
           id="path2-5"
           sodipodi:nodetypes="cccccccccccccccccccccccccccccc" />
      </g>
      <path
         d="m 2105.3905,437.93013 c 63.4886,0 105.8143,46.98155 105.8143,116.81898 v 95.23287 c 0,69.83744 -42.3257,116.39573 -105.8143,116.39573 -63.4886,0 -105.8143,-46.55829 -105.8143,-116.39573 v -95.23287 c 0,-69.83743 42.3257,-116.81898 105.8143,-116.81898 z m 95.2329,116.81898 c 0,-63.48858 -38.0932,-105.8143 -95.2329,-105.8143 -57.1397,0 -95.2329,42.32572 -95.2329,105.8143 v 95.23287 c 0,63.48858 38.0932,105.39105 95.2329,105.39105 25.3954,0 47.4048,-8.04189 63.4886,-24.12566 l -14.814,-14.81401 c -12.6977,11.85121 -29.628,18.20006 -48.6746,18.20006 -44.442,0 -74.07,-33.86057 -74.07,-84.65144 v -95.23287 c 0,-50.79086 29.628,-85.07469 74.07,-85.07469 44.442,0 74.07,34.28383 74.07,85.07469 v 95.23287 c 0,24.12566 -6.3489,44.44201 -18.2001,59.25601 l 16.0838,14.39075 c 14.814,-19.04658 23.2792,-44.44201 23.2792,-73.64676 z m -146.0238,-48.67457 c -8.4651,12.69771 -12.6977,29.628 -12.6977,48.67457 v 95.23287 c 0,44.44201 25.3954,73.64676 63.4886,73.64676 38.0931,0 63.4886,-29.20475 63.4886,-73.64676 v -95.23287 c 0,-44.442 -25.3955,-74.07001 -63.4886,-74.07001 -17.7768,0 -33.0141,6.34886 -43.1722,17.77681 l 15.6605,14.814 c 6.3488,-7.19537 16.0837,-11.8512 27.5117,-11.8512 25.3954,0 42.3257,21.58611 42.3257,53.3304 v 95.23287 c 0,31.74429 -16.9303,52.90715 -42.3257,52.90715 -25.3954,0 -42.3257,-21.16286 -42.3257,-52.90715 v -95.23287 c 0,-12.69771 2.9628,-24.54891 7.1953,-33.01406 z m 19.0466,143.90744 c 0,25.39544 12.6977,41.90247 31.7443,41.90247 19.0466,0 31.7443,-16.50703 31.7443,-41.90247 v -95.23287 c 0,-25.39543 -12.6977,-42.32572 -31.7443,-42.32572 -19.0466,0 -31.7443,16.93029 -31.7443,42.32572 z"
         id="path4"
         style="fill:#000000;stroke:#000000;stroke-width:8;stroke-opacity:1"
         sodipodi:nodetypes="ssssssssssssccssssssccsscssssssccssssssccsssssss" />
      <g
         id="g5"
         featureKey="nameLeftFeature-0"
         transform="matrix(23.065139,0,0,23.065139,1065.8673,311.07188)"
         fill="#000000">
        <path
           d="m 16,14.76 c 0,2.4 1.38,4 3.48,4 0.9,0 1.7,-0.3 2.26,-0.86 l 0.74,0.76 c -0.74,0.7 -1.8,1.08 -3,1.08 -2.7,0 -4.5,-1.98 -4.5,-4.98 V 5.5 H 16 Z m 1.5,0 c 0,1.5 0.78,2.5 1.98,2.5 1.2,0 2,-1 2,-2.5 V 5.5 h 1 v 9.26 c 0,2.1 -1.2,3.48 -3,3.48 -1.8,0 -3,-1.38 -3,-3.48 V 5.5 h 1.02 z m 6.48,0 c 0,1.44 -0.4,2.64 -1.14,3.48 l -0.76,-0.68 c 0.6,-0.7 0.9,-1.66 0.9,-2.8 V 5.5 h 1 z"
           id="path5"
           sodipodi:nodetypes="ssccssccssssccsssccssccsccs" />
      </g>
      <g
         id="g6"
         featureKey="nameLeftFeature-0"
         transform="matrix(23.065139,0,0,23.065139,1060.897,311.07188)"
         fill="#000000">
        <path
           d="m 37.24,6.5 h -5 v 13 h -1 v -13 h -3.5 v -1 h 9.5 z M 30.74,8 h -3 V 7 h 3 z m 6.5,0 H 34.08 L 33.1,7 h 4.14 z m -3.5,11.5 h -1 V 7.36 l 1,1.04 z"
           id="path6"
           sodipodi:nodetypes="cccccccccccccccccccccccc" />
      </g>
      <path
         d="m 2400.4976,443.43247 c 63.4886,0 105.8143,42.32572 105.8143,105.8143 0,63.48858 -42.3257,105.8143 -105.8143,105.8143 h -31.7443 v 105.8143 h -74.07 v -317.4429 z m 0,169.30288 c 38.0931,0 63.4886,-25.39543 63.4886,-63.48858 0,-38.09315 -25.3955,-63.48858 -63.4886,-63.48858 h -56.2932 l 22.4326,21.16286 h 33.8606 c 25.3954,0 42.3257,16.93029 42.3257,42.32572 0,25.39543 -16.9303,42.32572 -42.3257,42.32572 h -74.07 V 475.17676 h 74.07 c 44.442,0 74.07,29.628 74.07,74.07001 0,20.31635 -6.3488,37.24663 -16.9303,49.94435 l 16.0838,14.814 c 13.5442,-16.08377 22.0094,-38.09315 22.0094,-64.75835 0,-57.13972 -38.0932,-95.23287 -95.2329,-95.23287 h -95.2329 v 296.28004 h 21.1629 V 612.73535 Z m -63.4886,-31.74429 h 21.1629 v -66.87464 l -21.1629,-20.7396 z m 63.4886,0 c 19.0466,0 31.7443,-12.69772 31.7443,-31.74429 0,-19.04657 -12.6977,-31.74429 -31.7443,-31.74429 h -31.7443 v 63.48858 z m 0,63.48858 c 26.2419,0 48.6746,-8.46514 65.6049,-22.43263 l -16.0838,-15.66052 c -12.6977,10.58143 -29.628,16.93029 -49.5211,16.93029 h -56.2932 l 22.4326,21.16286 z m -42.3257,105.8143 v -98.19567 l -21.1629,-21.16286 v 119.35853 z"
         id="path7"
         style="fill:#000000;stroke-width:21.1629"
         sodipodi:nodetypes="sssccccssssccsssccssccssccccscccccsssccssccsccsccccc" />
      <path
         d="m 2964.2583,760.87537 h -74.07 v -317.4429 h 52.9071 l 74.0701,131.20973 V 443.43247 h 74.07 v 317.4429 h -52.9072 l -74.07,-131.20973 z M 2921.9326,533.163 3043.8307,750.29394 h 24.1256 L 2900.7697,454.0139 v 296.28004 h 21.1629 z m -8.4652,-79.1491 167.1866,296.28004 V 454.0139 h -21.1628 V 671.14484 L 2937.5931,454.0139 Z m 114.2795,138.82836 21.1628,36.82338 V 454.0139 h -21.1628 z m -74.07,17.7768 -21.1629,-36.82337 v 176.49825 h 21.1629 z"
         id="path8"
         style="fill:#000000;stroke-width:21.1629"
         sodipodi:nodetypes="ccccccccccccccccccccccccccccccccccc" />
    </g>
    <g
       id="SvgjsG3404"
       featureKey="5TMTKC-0"
       transform="matrix(10.548753,0,0,10.548753,91.236192,91.235442)"
       fill="url(#SvgjsLinearGradient3410)"
       style="fill:url(#linearGradient6)">
      <g
         data-name="Layer 2"
         id="g2"
         style="fill:url(#linearGradient5)">
        <g
           data-name="Layer 1"
           id="g1"
           style="fill:url(#linearGradient4)">
          <path
             d="m 66.69,48.39 a 5.62,5.62 0 1 0 0,-2 H 39.21 v -5.6 h 16 a 1,1 0 0 0 0.8,-0.41 l 6.6,-8.91 h 4 a 5.62,5.62 0 1 0 0,-2 h -4.47 a 1,1 0 0 0 -0.81,0.41 l -6.6,8.91 H 39.21 V 33.7 h 8.59 a 1,1 0 0 0 0.79,-0.39 l 6.92,-9.06 a 5.56,5.56 0 0 0 2.16,0.44 5.48,5.48 0 1 0 -3.82,-1.56 L 47.3,31.7 H 39.21 V 1 a 1,1 0 0 0 -2,0 v 17.07 a 9.87,9.87 0 0 0 -18.58,2.17 13.67,13.67 0 0 0 2.75,8.39 v 0 a 11.91,11.91 0 0 0 6.36,4 1.0084146,1.0084146 0 0 1 -0.26,2 h -0.26 a 13.9,13.9 0 0 1 -6.82,-4 c -1.85,0.89 -5.11,3 -5.24,5.46 a 1,1 0 0 1 -1,0.95 v 0 a 1,1 0 0 1 -1,-1 c 0.17,-3.54 4,-6 6,-7 a 16.44,16.44 0 0 1 -2.51,-7.9 c -5,0 -9.12,4.44 -9.12,9.88 A 10.54,10.54 0 0 0 8,34 1,1 0 0 1 7.56,35.14 C 2.89,38 0,43.63 0,49.81 a 18.77,18.77 0 0 0 2.08,8.64 1,1 0 0 1 0.11,0.51 v 0.32 c 0,0.2 0,0.4 0,0.6 0,7.94 4.65,14.52 11,16.14 a 16.39,16.39 0 0 1 2.08,-9.27 13.1,13.1 0 0 1 -6.58,-6 1,1 0 1 1 1.8,-0.87 11.09,11.09 0 0 0 6,5.17 l 0.12,-0.16 a 15.15,15.15 0 0 1 9.15,-4.69 8.75,8.75 0 0 1 5.76,-7.59 1.000962,1.000962 0 1 1 0.66,1.89 c -0.2,0.07 -4.69,1.74 -4.42,6.55 a 1,1 0 0 1 -0.26,0.73 1,1 0 0 1 -0.7,0.33 13.51,13.51 0 0 0 -8.8,4.12 c -2.16,2.46 -3.12,5.87 -2.88,10.13 h 0.53 a 1,1 0 0 1 0.87,0.58 11.33,11.33 0 0 0 20.67,-0.2 V 95 a 1,1 0 0 0 2,0 V 64.3 h 8.11 l 6.55,8.57 a 5.47,5.47 0 1 0 3.82,-1.56 5.56,5.56 0 0 0 -2.16,0.44 L 48.59,62.69 A 1,1 0 0 0 47.8,62.3 h -8.59 v -5.89 h 15.52 l 6.6,8.91 a 1,1 0 0 0 0.81,0.41 h 4.55 a 5.62,5.62 0 1 0 0,-2 h -4 L 56,54.82 a 1,1 0 0 0 -0.8,-0.41 h -16 v -6 z M 28.38,22.27 a 1.0001625,1.0001625 0 0 1 1.82,-0.83 8.25,8.25 0 0 0 7,4.55 v 2 C 31,27.84 28.41,22.33 28.38,22.27 Z m 0.32,20.59 c -0.74,1 -5,6.44 -9.92,7.21 A 7.52,7.52 0 0 1 17.63,50.16 6.51,6.51 0 0 1 15,49.6 c -0.4,2 -2.11,3.67 -5.13,4.88 A 1,1 0 0 1 9.5,54.55 1,1 0 0 1 9.12,52.63 c 2.45,-1 3.79,-2.2 4,-3.59 0.3,-2.34 -2.63,-5.06 -3.78,-5.91 a 1,1 0 0 1 -0.21,-1.4 1,1 0 0 1 1.39,-0.21 c 0.18,0.13 3.54,2.64 4.41,5.75 a 4.7,4.7 0 0 0 3.56,0.82 c 4.43,-0.69 8.68,-6.49 8.72,-6.55 a 0.88,0.88 0 0 1 0.24,-0.23 7.5,7.5 0 0 1 6,-1.39 9,9 0 0 1 3.76,1.94 v 2.8 A 8.21,8.21 0 0 0 33,41.88 5.5,5.5 0 0 0 28.7,42.86 Z m 0.64,28.42 a 1,1 0 0 1 -0.85,0.46 1,1 0 0 1 -0.53,-0.15 1,1 0 0 1 -0.31,-1.38 c 0,-0.06 3.64,-5.67 9.56,-5.36 v 2 c -4.79,-0.32 -7.73,4.21 -7.87,4.43 z"
             id="path1"
             style="fill:url(#linearGradient3)" />
        </g>
      </g>
    </g>
  </g>
</svg>
